<?xml version="1.0" encoding="UTF-8"?> <svg xmlns="http://www.w3.org/2000/svg" class="img" width="351" height="373" viewBox="0 0 351 373" fill="none"><path d="M176.792 372.261C166.981 372.261 157.169 369.808 148.207 364.997L38.1128 305.846C18.4901 295.28 6.32031 274.902 6.32031 252.638V123.77C6.32031 123.393 6.60333 123.016 7.07503 123.016C7.54673 123.016 7.82975 123.299 7.82975 123.77V252.544C7.82975 274.336 19.7165 294.242 38.8675 304.525L148.867 363.676C166.509 373.204 187.547 373.11 205.094 363.487L312.641 304.619C331.603 294.242 343.301 274.431 343.301 252.827V245.468C343.301 245.091 343.584 244.714 344.056 244.714C344.528 244.714 344.811 244.997 344.811 245.468V252.827C344.811 274.902 332.735 295.185 313.396 305.846L205.849 364.714C196.698 369.714 186.698 372.261 176.792 372.261Z" fill="#3AA2FD"></path><path d="M344.057 207.451C343.68 207.451 343.302 207.168 343.302 206.697V123.489C343.302 102.546 332.076 83.1117 314.057 72.5457L206.51 9.80983C188.302 -0.850552 165.661 -0.944891 147.359 9.52681L97.0758 38.3947C96.6985 38.5834 96.3211 38.4891 96.1324 38.1117C95.9437 37.7344 96.0381 37.357 96.4154 37.1683L146.698 8.30039C165.378 -2.45432 188.585 -2.35999 207.17 8.48907L314.717 71.2249C333.208 81.9796 344.717 101.98 344.717 123.395V206.602C344.717 207.074 344.434 207.451 344.057 207.451Z" fill="#3AA2FD"></path><path d="M345.282 215.847L331.131 223.583C328.773 224.809 326.037 224.904 323.679 223.583L309.245 215.847C306.698 214.526 305.094 211.885 305.094 208.96V192.074C305.094 189.243 306.603 186.696 309.056 185.281L323.49 176.979C325.943 175.564 328.867 175.564 331.32 176.979L345.377 185.187C347.735 186.602 349.245 189.149 349.245 191.979V208.866C349.339 211.885 347.735 214.526 345.282 215.847Z" fill="white"></path><path fill-rule="evenodd" clip-rule="evenodd" d="M323.396 224.244C324.717 224.904 326.037 225.281 327.452 225.281C328.868 225.281 330.188 224.904 331.415 224.055L345.471 216.319C348.207 214.81 349.905 211.979 349.905 208.866V191.979C349.905 188.96 348.302 186.13 345.66 184.621L331.603 176.413C329.056 174.904 325.754 174.904 323.113 176.413L308.679 184.715C306.037 186.225 304.434 189.055 304.434 192.074V208.96C304.434 212.168 306.226 214.998 308.962 216.508L323.396 224.244ZM323.962 177.734C325 177.074 326.226 176.791 327.452 176.791C328.679 176.791 329.905 177.074 331.132 177.828L345.188 186.036C347.358 187.262 348.679 189.621 348.679 192.168V209.055C348.679 211.602 347.264 214.055 345 215.281L330.943 223.017C328.773 224.149 326.32 224.149 324.151 223.017L309.717 215.281C307.358 214.055 305.943 211.696 305.943 209.055V192.168C305.943 189.621 307.358 187.262 309.528 186.036L323.962 177.734Z" fill="#3AA2FD"></path><path d="M328.396 143.867H326.981V129.622C326.981 110.754 316.887 93.2066 300.566 83.6783L203.491 26.9802C187.075 17.4519 166.698 17.3575 150.189 26.7915L91.6037 60.4708L90.9434 59.2443L149.528 25.5651C166.415 15.8481 187.358 15.9425 204.245 25.7538L301.321 82.4519C318.019 92.1689 328.396 110.282 328.396 129.622V143.867Z" fill="#3AA2FD"></path><path d="M176.604 354.245C167.736 354.245 158.868 352.075 150.755 347.735L51.5099 294.245C33.7741 284.716 22.7363 266.32 22.7363 246.131V129.905C22.7363 116.131 27.925 103.018 37.1703 92.8295C37.4533 92.5464 37.925 92.5464 38.208 92.8295C38.491 93.1125 38.491 93.5842 38.208 93.8672C29.1514 103.679 24.0571 116.509 24.0571 129.905V246.226C24.0571 265.848 34.8118 283.773 52.076 293.112L151.416 346.509C167.359 355.094 186.321 354.999 202.17 346.32L299.246 293.207C316.321 283.867 326.887 266.037 326.887 246.509V224.811C326.887 224.433 327.17 224.056 327.642 224.056C328.114 224.056 328.397 224.339 328.397 224.811V246.509C328.397 266.509 317.548 284.811 300 294.433L202.831 347.452C194.623 351.98 185.661 354.245 176.604 354.245Z" fill="#3AA2FD"></path><path d="M253.208 319.433H251.793V130.942C251.793 119.244 242.265 109.716 230.566 109.716H118.208C106.51 109.716 96.9815 119.244 96.9815 130.942V317.263H95.5664V130.942C95.5664 118.489 105.755 108.301 118.208 108.301H230.566C243.019 108.301 253.208 118.489 253.208 130.942V319.433Z" fill="#3AA2FD"></path><path d="M245.849 323.299H244.434V132.356C244.434 124.148 237.736 117.45 229.528 117.45H208.962C206.981 117.45 205.094 118.394 203.868 119.997C201.698 122.733 198.491 124.337 195 124.337H153.679C150.189 124.337 146.981 122.733 144.811 119.997C143.585 118.394 141.698 117.45 139.717 117.45H119.434C111.226 117.45 104.528 124.148 104.528 132.356V321.413H103.113V132.356C103.113 123.394 110.472 116.035 119.434 116.035H139.623C142.076 116.035 144.34 117.167 145.849 119.054C147.736 121.413 150.566 122.828 153.585 122.828H194.906C197.925 122.828 200.755 121.413 202.642 119.054C204.151 117.167 206.415 116.035 208.868 116.035H229.434C238.396 116.035 245.755 123.394 245.755 132.356V323.299H245.849Z" fill="#3AA2FD"></path><path d="M168.302 193.206C167.924 193.206 167.547 193.112 167.264 193.017C160.943 190.753 145.66 185.376 138.585 183.961C131.226 182.451 126.887 177.074 125.377 174.81C125 174.149 124.245 173.772 123.585 173.772L103.302 173.583V151.508L181.132 161.225C183.113 161.508 184.811 162.546 185.849 164.338L190.283 171.885L189.056 172.64L184.623 165.093C183.868 163.772 182.547 162.923 180.943 162.734L104.623 153.206V172.263L123.49 172.451C124.717 172.451 125.849 173.112 126.509 174.055C127.924 176.13 131.981 181.13 138.773 182.546C145.66 183.961 159.811 188.866 167.641 191.696C168.49 191.98 169.151 191.602 169.528 191.225C170 190.659 170.094 189.998 169.811 189.432C168.396 186.602 164.528 182.64 154.245 179.432L153.207 179.055L157.83 174.055C159.623 172.074 162.17 171.036 164.811 171.13L176.604 171.696L176.509 173.112L164.717 172.546C162.453 172.451 160.377 173.395 158.868 174.998L155.755 178.395C165.755 181.696 169.623 185.847 171.132 188.772C171.698 189.904 171.509 191.225 170.66 192.168C170 192.829 169.151 193.206 168.302 193.206Z" fill="#3AA2FD"></path><path d="M196.981 172.17C192.169 172.17 187.264 169.151 186.981 168.962L187.735 167.736C187.83 167.83 195.471 172.547 200.471 170C200.849 169.811 200.849 169.434 200.943 169.34C200.943 169.057 200.849 168.774 200.566 168.585L180.188 156.321C178.868 155.566 177.358 155.283 175.943 155.472L150.566 158.962L150.377 157.547L175.754 154.057C177.547 153.774 179.434 154.151 180.943 155.095L201.226 167.264C201.886 167.642 202.358 168.491 202.264 169.245C202.264 170.094 201.792 170.755 201.037 171.132C199.811 171.887 198.396 172.17 196.981 172.17Z" fill="#3AA2FD"></path><path d="M191.698 162.924C191.51 162.924 191.415 162.924 191.227 162.924L191.321 161.509C193.019 161.604 194.528 161.321 195.849 160.66C196.321 160.472 196.321 160 196.321 159.905C196.321 159.811 196.227 159.339 195.755 159.151L174.717 150.755C172.453 149.905 169.906 150.094 167.925 151.415L157.453 158.019L156.698 156.792L167.17 150.188C169.623 148.679 172.642 148.396 175.283 149.434L196.321 157.83C197.17 158.207 197.736 158.962 197.736 159.811C197.736 160.66 197.264 161.509 196.51 161.887C195 162.547 193.491 162.924 191.698 162.924Z" fill="#3AA2FD"></path><path d="M180.2 241.762L180.252 240.348L186.851 240.59L186.799 242.004L180.2 241.762Z" fill="#3AA2FD"></path><path d="M170.661 241.414L164.906 241.225L160.283 231.508H161.415C161.415 231.508 164.057 231.508 168.208 231.414V232.829C165.661 232.829 163.585 232.923 162.453 232.923L165.755 239.905L170.661 240.093V241.414Z" fill="#3AA2FD"></path><path d="M245.283 238.865H223.774L223.585 238.488C223.585 238.394 220.095 232.733 212.642 232.45C207.831 232.262 189.812 232.45 175.566 232.639V231.224C189.812 231.035 207.831 230.847 212.736 231.035C219.906 231.318 223.68 236.035 224.529 237.45H245.283V238.865Z" fill="#3AA2FD"></path><path d="M244.906 260.754L216.887 255.659C212.547 254.905 208.019 255.565 204.057 257.452L199.812 259.527C197.453 260.659 194.717 260.565 192.453 259.339L172.076 247.923L166.038 226.697C165.755 225.848 166.038 224.905 166.698 224.244C167.359 223.584 168.302 223.395 169.151 223.678C170.944 224.339 173.396 225.754 175 228.961C176.51 232.074 178.019 235.565 179.057 237.923C180 240.093 181.887 241.791 184.151 242.452L185.095 242.735L194.529 231.32L195.661 232.263L185.566 244.433L183.68 243.867C181.038 243.018 178.868 241.131 177.736 238.489C176.698 236.131 175.189 232.64 173.68 229.622C172.359 226.791 170.189 225.565 168.68 225.093C168.302 224.999 167.925 225.093 167.642 225.282C167.359 225.565 167.264 225.942 167.359 226.32L173.208 246.98L193.019 258.112C194.906 259.15 197.17 259.244 199.057 258.301L203.302 256.225C207.547 254.15 212.264 253.489 216.981 254.339L245 259.433L244.906 260.754Z" fill="#3AA2FD"></path><path d="M189.529 261.978C188.774 261.978 187.925 261.884 187.17 261.601L165.944 254.997C163.019 254.053 160.661 251.789 159.717 248.959L152.736 228.487C152.453 227.544 152.642 226.601 153.397 225.94C154.151 225.28 155.095 225.091 156.038 225.563C158.397 226.601 160.095 228.11 161.038 229.902C162.453 232.544 165.095 238.11 167.17 242.355C168.302 244.714 170.472 246.318 172.925 246.884L172.642 248.299C169.717 247.733 167.17 245.751 165.849 243.016C163.868 238.77 161.132 233.204 159.812 230.563C158.963 229.053 157.548 227.827 155.472 226.884C155.095 226.695 154.717 226.789 154.34 227.072C154.057 227.355 153.963 227.733 154.057 228.11L161.038 248.582C161.887 251.035 163.868 253.016 166.321 253.77L187.548 260.374C189.151 260.846 190.755 260.751 192.265 260.091L194.623 258.959L195.283 260.28L192.925 261.412C191.793 261.695 190.661 261.978 189.529 261.978Z" fill="#3AA2FD"></path><path d="M183.585 260.563L161.226 257.544C159.057 257.261 156.981 256.223 155.472 254.525L140.472 238.299C139.811 237.638 139.623 236.695 140 235.846C140.283 234.997 141.038 234.431 141.887 234.242C143.113 234.054 144.151 234.054 145.094 234.148C147.924 234.431 158.302 243.488 159.434 244.525L158.491 245.563C154.245 241.789 146.792 235.657 144.906 235.469C144.057 235.374 143.113 235.374 142.075 235.563C141.698 235.657 141.415 235.846 141.321 236.223C141.226 236.601 141.226 236.978 141.509 237.261L156.509 253.488C157.83 254.903 159.528 255.752 161.415 256.035L183.774 259.054L183.585 260.563Z" fill="#3AA2FD"></path><path d="M159.811 260.657C159.056 260.657 158.396 260.563 157.641 260.374L137.453 255.752C136.509 255.563 135.849 254.808 135.66 253.959C135.471 253.016 135.754 252.072 136.509 251.506C138.396 249.997 140.471 249.242 142.736 249.242C148.019 249.242 152.736 250.091 152.924 250.091L152.641 251.506C152.547 251.506 147.83 250.657 142.736 250.657C140.754 250.657 138.962 251.318 137.358 252.638C137.075 252.921 136.887 253.299 136.981 253.676C137.075 254.054 137.358 254.337 137.736 254.431L157.924 259.054C158.868 259.242 159.905 259.337 160.943 259.148L171.32 257.638L171.509 259.054L161.132 260.563C160.66 260.563 160.283 260.657 159.811 260.657Z" fill="#3AA2FD"></path><path d="M215.754 207.262H133.868C132.83 207.262 132.075 206.413 132.075 205.469V180.941H133.49V205.469C133.49 205.658 133.679 205.847 133.868 205.847H215.754C215.943 205.847 216.132 205.658 216.132 205.469V173.394C216.132 173.205 215.943 173.017 215.754 173.017H176.603V171.602H215.754C216.792 171.602 217.547 172.451 217.547 173.394V205.469C217.547 206.507 216.792 207.262 215.754 207.262Z" fill="#3AA2FD"></path><path d="M216.604 217.924C216.51 217.924 216.415 217.924 216.321 217.924L150.095 207.358L150.283 205.943L216.51 216.509C216.699 216.509 216.887 216.415 216.982 216.226L222.076 184.528C222.076 184.434 222.076 184.34 221.982 184.245C221.887 184.151 221.793 184.151 221.699 184.057L216.793 183.302L216.982 181.887L221.887 182.641C222.359 182.736 222.736 183.019 223.019 183.396C223.302 183.774 223.397 184.245 223.302 184.717L218.208 216.415C218.208 217.358 217.453 217.924 216.604 217.924Z" fill="#3AA2FD"></path><path d="M175.378 200.754C170.283 200.754 165.849 196.886 165.095 191.886L166.51 191.697C167.17 196.131 170.944 199.433 175.378 199.433C180.283 199.433 184.34 195.376 184.34 190.471C184.34 185.565 180.283 181.508 175.378 181.508C172.359 181.508 169.529 183.018 167.925 185.565L166.793 184.81C168.68 181.886 171.982 180.188 175.472 180.188C181.227 180.188 185.849 184.81 185.849 190.565C185.849 196.32 181.132 200.754 175.378 200.754Z" fill="#3AA2FD"></path><path d="M139.811 206.698C139.056 203.113 136.226 200.188 132.547 199.622L132.83 198.207C136.981 198.962 140.377 202.264 141.226 206.415L139.811 206.698Z" fill="#3AA2FD"></path><path d="M209.623 206.698L208.208 206.415C209.057 202.264 212.359 198.962 216.604 198.207L216.887 199.622C213.208 200.283 210.378 203.113 209.623 206.698Z" fill="#3AA2FD"></path><path d="M216.604 180.565C212.453 179.81 209.057 176.508 208.208 172.357L209.623 172.074C210.378 175.659 213.208 178.584 216.887 179.15L216.604 180.565Z" fill="#3AA2FD"></path><path d="M267.264 204.527H265.849V168.867C265.849 160.565 272.641 153.772 280.943 153.772C288.49 153.772 294.622 147.64 294.622 140.093V42.0742H296.037V140.093C296.037 148.395 289.245 155.187 280.943 155.187C273.396 155.187 267.264 161.319 267.264 168.867V204.527Z" fill="#3AA2FD"></path><path d="M204.717 108.585H203.302V84.3395C203.302 77.3583 208.962 71.698 215.943 71.698C222.075 71.698 227.17 66.698 227.17 60.4715V13.7734H228.585V60.5659C228.585 67.547 222.924 73.2074 215.943 73.2074C209.811 73.2074 204.717 78.2074 204.717 84.4338V108.585Z" fill="#3AA2FD"></path><path d="M252.453 131.601V130.185C261.132 130.185 268.114 123.11 268.114 114.525V93.0156H269.529V114.525C269.623 123.959 261.887 131.601 252.453 131.601Z" fill="#3AA2FD"></path><path d="M311.037 52.922L299.056 59.4314C297.075 60.4692 294.717 60.4692 292.736 59.4314L280.566 52.8277C278.396 51.6956 277.075 49.4314 277.075 46.9786V32.8277C277.075 30.4692 278.302 28.2994 280.377 27.073L292.547 20.0918C294.622 18.8654 297.17 18.9597 299.151 20.0918L311.132 27.073C313.207 28.2994 314.434 30.4692 314.434 32.8277V47.1673C314.528 49.5258 313.207 51.7899 311.037 52.922Z" fill="white"></path><path fill-rule="evenodd" clip-rule="evenodd" d="M292.453 60.1861C293.585 60.7521 294.717 61.0352 295.943 61.0352C297.17 61.0352 298.396 60.7521 299.528 60.0918L311.509 53.5823C313.868 52.3559 315.283 49.8087 315.283 47.1672V32.8276C315.283 30.2804 313.868 27.8276 311.604 26.5069L299.623 19.5257C297.358 18.205 294.528 18.205 292.264 19.5257L280.094 26.5069C277.83 27.7333 276.415 30.1861 276.415 32.8276V47.1672C276.415 49.8087 277.924 52.2616 280.283 53.5823L292.453 60.1861ZM293.019 20.6578C293.868 20.1861 294.906 19.9031 295.943 19.9031C296.981 19.9031 298.019 20.1861 298.962 20.6578L310.943 27.6389C312.736 28.6767 313.868 30.6578 313.868 32.7333V47.1672C313.868 49.337 312.641 51.3182 310.755 52.3559L298.774 58.8653C296.981 59.8087 294.906 59.8087 293.113 58.8653L280.943 52.2616C279.057 51.2238 277.83 49.2427 277.83 47.0729V32.7333C277.83 30.6578 279.057 28.6767 280.849 27.6389L293.019 20.6578Z" fill="#3AA2FD"></path><path d="M283.962 85.7546L271.981 92.2641C270 93.3018 267.642 93.3018 265.66 92.2641L253.491 85.6603C251.321 84.5282 250 82.2641 250 79.8112V65.5659C250 63.2075 251.226 61.0376 253.302 59.8112L265.472 52.8301C267.547 51.6037 270.094 51.698 272.075 52.8301L284.057 59.8112C286.132 61.0376 287.358 63.2075 287.358 65.5659V79.9056C287.358 82.3584 286.038 84.5282 283.962 85.7546Z" fill="white"></path><path fill-rule="evenodd" clip-rule="evenodd" d="M265.378 92.9244C266.51 93.4904 267.642 93.7734 268.868 93.7734C270.095 93.7734 271.227 93.4904 272.453 92.83L284.434 86.3206C286.793 85.0942 288.208 82.547 288.208 79.9055V65.5659C288.208 63.0187 286.793 60.5659 284.529 59.2451L272.547 52.264C270.283 50.9432 267.453 50.9432 265.189 52.264L253.019 59.2451C250.755 60.4716 249.34 62.9244 249.34 65.5659V79.9055C249.34 82.547 250.849 84.9999 253.208 86.3206L265.378 92.9244ZM265.944 53.3961C266.793 52.9244 267.83 52.6414 268.868 52.6414C269.906 52.6414 270.944 52.9244 271.887 53.4904L283.868 60.4716C285.661 61.5093 286.793 63.4904 286.793 65.5659V79.9055C286.793 82.0753 285.566 84.0565 283.679 85.0942L271.698 91.6036C269.906 92.547 267.83 92.547 266.038 91.6036L253.868 84.9999C251.981 83.9621 250.755 81.981 250.755 79.8112V65.4716C250.755 63.3961 251.981 61.4149 253.774 60.3772L265.944 53.3961Z" fill="#3AA2FD"></path><path d="M287.17 223.205C289.306 223.205 291.038 221.473 291.038 219.337C291.038 217.2 289.306 215.469 287.17 215.469C285.033 215.469 283.302 217.2 283.302 219.337C283.302 221.473 285.033 223.205 287.17 223.205Z" fill="#3AA2FD"></path><path d="M266.51 206.416C268.646 206.416 270.377 204.684 270.377 202.548C270.377 200.411 268.646 198.68 266.51 198.68C264.373 198.68 262.642 200.411 262.642 202.548C262.642 204.684 264.373 206.416 266.51 206.416Z" fill="#3AA2FD"></path><path d="M327.83 149.623C329.966 149.623 331.698 147.891 331.698 145.755C331.698 143.618 329.966 141.887 327.83 141.887C325.694 141.887 323.962 143.618 323.962 145.755C323.962 147.891 325.694 149.623 327.83 149.623Z" fill="#3AA2FD"></path><path d="M343.868 246.416C346.004 246.416 347.736 244.684 347.736 242.548C347.736 240.411 346.004 238.68 343.868 238.68C341.732 238.68 340 240.411 340 242.548C340 244.684 341.732 246.416 343.868 246.416Z" fill="#3AA2FD"></path><path d="M305.188 246.416C307.324 246.416 309.056 244.684 309.056 242.548C309.056 240.411 307.324 238.68 305.188 238.68C303.052 238.68 301.32 240.411 301.32 242.548C301.32 244.684 303.052 246.416 305.188 246.416Z" fill="#3AA2FD"></path><path d="M43.7732 246.416C45.9094 246.416 47.6411 244.684 47.6411 242.548C47.6411 240.411 45.9094 238.68 43.7732 238.68C41.637 238.68 39.9053 240.411 39.9053 242.548C39.9053 244.684 41.637 246.416 43.7732 246.416Z" fill="#3AA2FD"></path><path d="M183.963 64.5249C186.099 64.5249 187.831 62.7932 187.831 60.657C187.831 58.5208 186.099 56.7891 183.963 56.7891C181.826 56.7891 180.095 58.5208 180.095 60.657C180.095 62.7932 181.826 64.5249 183.963 64.5249Z" fill="#3AA2FD"></path><path d="M40.0945 94.9976C42.2307 94.9976 43.9624 93.2658 43.9624 91.1296C43.9624 88.9934 42.2307 87.2617 40.0945 87.2617C37.9583 87.2617 36.2266 88.9934 36.2266 91.1296C36.2266 93.2658 37.9583 94.9976 40.0945 94.9976Z" fill="#3AA2FD"></path><path d="M6.98121 126.978C9.1174 126.978 10.8491 125.246 10.8491 123.11C10.8491 120.974 9.1174 119.242 6.98121 119.242C4.84501 119.242 3.11328 120.974 3.11328 123.11C3.11328 125.246 4.84501 126.978 6.98121 126.978Z" fill="#3AA2FD"></path><path d="M227.83 15.2827C229.966 15.2827 231.698 13.551 231.698 11.4148C231.698 9.2786 229.966 7.54688 227.83 7.54688C225.694 7.54688 223.962 9.2786 223.962 11.4148C223.962 13.551 225.694 15.2827 227.83 15.2827Z" fill="#3AA2FD"></path><rect x="286.415" y="219.715" width="1.41509" height="81.1321" fill="#3AA2FD"></rect><rect x="304.434" y="241.602" width="1.41509" height="48.3962" fill="#3AA2FD"></rect><rect x="183.208" y="64.1484" width="1.41509" height="45" fill="#3AA2FD"></rect><path d="M5.47164 215.753L19.5282 223.489C21.8867 224.716 24.6226 224.81 26.9811 223.489L41.415 215.753C43.9622 214.433 45.566 211.791 45.566 208.867V191.98C45.566 189.15 44.0565 186.603 41.6037 185.187L27.1698 176.886C24.7169 175.47 21.7924 175.47 19.3396 176.886L5.28296 185.093C2.92447 186.508 1.41504 189.055 1.41504 191.886V208.772C1.41504 211.791 2.92447 214.433 5.47164 215.753Z" fill="white"></path><path fill-rule="evenodd" clip-rule="evenodd" d="M19.2454 224.149C20.4719 224.81 21.887 225.187 23.3021 225.187C24.6228 225.187 26.0379 224.81 27.2643 224.244L41.6983 216.508C44.5285 214.998 46.2266 212.074 46.2266 208.96V192.074C46.2266 189.055 44.6228 186.225 41.9813 184.715L27.5473 176.413C24.9058 174.904 21.6983 174.904 19.0568 176.413L5.00017 184.621C2.35866 186.13 0.754883 188.96 0.754883 191.979V208.96C0.754883 212.074 2.453 214.904 5.18885 216.413L19.2454 224.149ZM19.8115 222.923L5.75488 215.187C3.49073 213.866 2.07564 211.508 2.07564 208.96V191.979C2.07564 189.432 3.39639 187.074 5.5662 185.847L19.7171 177.64C21.887 176.413 24.6228 176.413 26.7926 177.64L41.2266 185.942C43.3964 187.168 44.8115 189.527 44.8115 192.074V208.96C44.8115 211.508 43.3021 213.96 41.0379 215.187L26.6039 222.923C24.4341 224.055 21.887 224.055 19.8115 222.923Z" fill="#3AA2FD"></path><path d="M83.1135 310.282H81.6984V168.773C81.6984 161.226 75.5663 155.094 68.0191 155.094C59.7173 155.094 52.9248 148.301 52.9248 139.999V41.9805H54.3399V139.999C54.3399 147.547 60.472 153.679 68.0191 153.679C76.321 153.679 83.1135 160.471 83.1135 168.773V310.282Z" fill="#3AA2FD"></path><path d="M144.528 108.491H143.113V84.2457C143.113 78.1137 138.113 73.0193 131.887 73.0193C124.905 73.0193 119.245 67.3589 119.245 60.3778V13.6797H120.66V60.4721C120.66 66.6042 125.66 71.6986 131.887 71.6986C138.868 71.6986 144.528 77.3589 144.528 84.3401V108.491Z" fill="#3AA2FD"></path><path d="M96.5091 131.601C87.0751 131.601 79.4336 123.959 79.4336 114.525V93.0156H80.8487V114.525C80.8487 123.204 87.9242 130.185 96.5091 130.185V131.601Z" fill="#3AA2FD"></path><path d="M37.9242 54.6212L49.9053 61.1307C51.8864 62.1684 54.2449 62.1684 56.226 61.1307L68.3959 54.5269C70.5657 53.3948 71.8864 51.1307 71.8864 48.6778V34.5269C71.8864 32.1684 70.66 29.9986 68.5845 28.7722L56.4147 21.791C54.3393 20.5646 51.7921 20.659 49.811 21.791L37.7355 28.7722C35.66 29.9986 34.4336 32.1684 34.4336 34.5269V48.8665C34.4336 51.225 35.7543 53.4892 37.9242 54.6212Z" fill="white"></path><path fill-rule="evenodd" clip-rule="evenodd" d="M49.5282 61.7916C50.5659 62.4519 51.7923 62.735 53.0187 62.735C54.2451 62.735 55.3772 62.4519 56.5093 61.7916L68.6791 55.1878C71.0376 53.9614 72.547 51.5086 72.547 48.7727V34.4331C72.547 31.8859 71.1319 29.4331 68.8678 28.1123L56.7923 21.1312C54.5282 19.8104 51.698 19.8104 49.4338 21.1312L37.4527 28.1123C35.1885 29.4331 33.7734 31.7916 33.7734 34.4331V48.867C33.7734 51.5086 35.1885 53.9614 37.547 55.2821L49.5282 61.7916ZM49.9999 22.4519C50.9432 21.8859 51.981 21.6029 53.0187 21.6029C54.0565 21.6029 55.0942 21.8859 55.9432 22.4519L68.1131 29.4331C69.9999 30.4708 71.1319 32.4519 71.1319 34.5274V48.7727C71.1319 50.9425 69.9055 52.9236 68.0187 53.9614L55.8489 60.5652C54.0565 61.5085 51.981 61.5085 50.1885 60.5652L38.2074 54.0557C36.2263 53.018 35.0942 51.0369 35.0942 48.867V34.5274C35.0942 32.4519 36.2263 30.4708 38.0187 29.4331L49.9999 22.4519Z" fill="#3AA2FD"></path><path d="M64.9997 88.6798L76.9809 95.1893C78.962 96.227 81.3205 96.227 83.3016 95.1893L95.4714 88.5855C97.6413 87.4534 98.962 85.1893 98.962 82.7364V68.5855C98.962 66.227 97.7356 64.0572 95.6601 62.8308L83.4903 55.8496C81.4148 54.6232 78.8677 54.7176 76.8865 55.8496L64.9054 62.8308C62.8299 64.0572 61.6035 66.227 61.6035 68.5855V82.9251C61.6035 85.2836 62.9243 87.5477 64.9997 88.6798Z" fill="white"></path><path fill-rule="evenodd" clip-rule="evenodd" d="M76.6981 95.7558C77.7358 96.4162 78.9622 96.6992 80.1886 96.6992C81.3207 96.6992 82.5471 96.4162 83.5849 95.8502L95.7547 89.2464C98.1132 88.02 99.6226 85.5671 99.6226 82.8313V68.4917C99.6226 65.9445 98.2075 63.4917 95.9434 62.1709L83.7735 55.1898C81.5094 53.869 78.6792 53.869 76.4151 55.1898L64.6226 62.1709C62.3585 63.4917 60.9434 65.8502 60.9434 68.4917V82.8313C60.9434 85.4728 62.3585 87.9256 64.7169 89.2464L76.6981 95.7558ZM77.1698 56.5105C78.1132 55.9445 79.1509 55.6615 80.1886 55.6615C81.132 55.6615 82.1698 55.8502 83.1132 56.5105L95.283 63.4917C97.1698 64.5294 98.3018 66.5105 98.3018 68.586V82.8313C98.3018 85.0011 97.0754 86.9822 95.1886 88.02L83.0188 94.6237C81.2264 95.5671 79.1509 95.5671 77.3585 94.6237L65.3773 88.1143C63.3962 87.0766 62.2641 85.0954 62.2641 82.9256V68.586C62.2641 66.5105 63.3962 64.5294 65.1886 63.4917L77.1698 56.5105Z" fill="#3AA2FD"></path><path d="M61.7927 222.076C63.9289 222.076 65.6607 220.344 65.6607 218.208C65.6607 216.072 63.9289 214.34 61.7927 214.34C59.6565 214.34 57.9248 216.072 57.9248 218.208C57.9248 220.344 59.6565 222.076 61.7927 222.076Z" fill="#3AA2FD"></path><path d="M163.585 46.8843C165.721 46.8843 167.453 45.1526 167.453 43.0164C167.453 40.8802 165.721 39.1484 163.585 39.1484C161.449 39.1484 159.717 40.8802 159.717 43.0164C159.717 45.1526 161.449 46.8843 163.585 46.8843Z" fill="#3AA2FD"></path><path d="M96.4148 41.8843C98.551 41.8843 100.283 40.1526 100.283 38.0164C100.283 35.8802 98.551 34.1484 96.4148 34.1484C94.2786 34.1484 92.5469 35.8802 92.5469 38.0164C92.5469 40.1526 94.2786 41.8843 96.4148 41.8843Z" fill="#3AA2FD"></path><path d="M120 15.189C122.136 15.189 123.868 13.4572 123.868 11.321C123.868 9.18485 122.136 7.45312 120 7.45312C117.864 7.45312 116.132 9.18485 116.132 11.321C116.132 13.4572 117.864 15.189 120 15.189Z" fill="#3AA2FD"></path><rect x="61.1318" y="219.621" width="1.41509" height="79.2453" fill="#3AA2FD"></rect><rect x="43.1133" y="241.508" width="1.41509" height="46.6981" fill="#3AA2FD"></rect><rect x="162.83" y="45.6602" width="1.41509" height="63.3962" fill="#3AA2FD"></rect><path d="M203.396 285.849H122.925C122.547 285.849 122.17 285.566 122.17 285.095C122.17 284.623 122.453 284.34 122.925 284.34H203.396C203.774 284.34 204.151 284.623 204.151 285.095C204.151 285.566 203.774 285.849 203.396 285.849Z" fill="#3AA2FD"></path><path d="M225.944 285.849H210.849C210.472 285.849 210.095 285.566 210.095 285.095C210.095 284.623 210.378 284.34 210.849 284.34H225.944C226.321 284.34 226.698 284.623 226.698 285.095C226.698 285.566 226.321 285.849 225.944 285.849Z" fill="#3AA2FD"></path><path d="M225.943 296.697H145.472C145.094 296.697 144.717 296.414 144.717 295.942C144.717 295.471 145 295.188 145.472 295.188H225.943C226.321 295.188 226.698 295.471 226.698 295.942C226.698 296.414 226.321 296.697 225.943 296.697Z" fill="#3AA2FD"></path><path d="M137.924 296.697H122.83C122.453 296.697 122.075 296.414 122.075 295.942C122.075 295.471 122.358 295.188 122.83 295.188H137.924C138.302 295.188 138.679 295.471 138.679 295.942C138.679 296.414 138.396 296.697 137.924 296.697Z" fill="#3AA2FD"></path><path d="M203.396 307.263H122.925C122.547 307.263 122.17 306.98 122.17 306.509C122.17 306.037 122.453 305.754 122.925 305.754H203.396C203.774 305.754 204.151 306.037 204.151 306.509C204.151 306.98 203.774 307.263 203.396 307.263Z" fill="#3AA2FD"></path><path d="M225.944 307.263H210.849C210.472 307.263 210.095 306.98 210.095 306.509C210.095 306.037 210.378 305.754 210.849 305.754H225.944C226.321 305.754 226.698 306.037 226.698 306.509C226.698 306.98 226.321 307.263 225.944 307.263Z" fill="#3AA2FD"></path><path fill-rule="evenodd" clip-rule="evenodd" d="M285.472 45.278H304.906C306.509 45.278 307.83 44.429 308.302 43.0139C308.962 41.5988 308.679 40.0893 307.641 38.9573C305.283 36.3157 301.604 35.0893 297.924 35.844C296.887 34.3346 295.189 33.2969 293.302 33.2969C290.849 33.2969 288.773 34.995 288.113 37.2591C286.604 37.3535 285.377 38.0139 284.056 39.5233C283.207 40.4667 282.83 41.6931 282.83 42.8252V42.9195C282.924 44.1459 284.151 45.278 285.472 45.278ZM285.189 40.3723C286.415 38.8629 287.358 38.5799 288.207 38.5799C288.396 38.5799 288.49 38.5799 288.679 38.6742H289.245L289.34 38.0139C289.717 36.0327 291.321 34.6176 293.302 34.6176C294.811 34.6176 296.226 35.4667 296.887 36.8818L297.17 37.4478L297.736 37.2591C298.49 37.0705 299.245 36.9761 300 36.9761C302.453 36.9761 304.906 38.0139 306.604 39.9006C307.453 40.7497 307.358 41.7874 307.075 42.4478C306.792 43.1082 306.038 43.8629 304.906 43.8629H285.472C284.811 43.8629 284.245 43.3912 284.245 42.8252V42.7308C284.245 41.9761 284.528 41.1271 285.189 40.3723Z" fill="#3AA2FD"></path><path fill-rule="evenodd" clip-rule="evenodd" d="M269.905 83.4878C270.188 84.0539 270.754 84.4312 271.32 84.4312C271.509 84.4312 271.698 84.4312 271.886 84.3369L274.056 83.4878C274.434 83.2992 274.717 83.0161 274.905 82.6388C275.094 82.2614 275.094 81.8841 274.905 81.5067L274.434 80.1859V80.0916C275 79.6199 275.471 79.1482 275.943 78.6765H276.037L277.452 79.2426C278.207 79.6199 279.151 79.2426 279.434 78.4878L280.377 76.4124C280.566 76.035 280.566 75.6576 280.377 75.2803C280.188 74.9029 279.905 74.6199 279.528 74.4312L278.207 73.8652C278.113 73.8652 278.113 73.7709 278.113 73.7709C278.207 73.1105 278.302 72.4501 278.207 71.7897L278.302 71.6954L279.717 71.1293C280.094 70.9407 280.377 70.6576 280.566 70.2803C280.754 69.9029 280.754 69.5256 280.566 69.1482L279.717 66.9784C279.434 66.2237 278.49 65.8463 277.735 66.1293L276.415 66.601H276.32C275.849 66.035 275.377 65.5633 274.905 65.0916V64.9973L275.471 63.5822C275.66 63.2048 275.66 62.8275 275.471 62.4501C275.283 62.0727 275 61.7897 274.622 61.601L272.547 60.6576C272.169 60.469 271.792 60.469 271.415 60.6576C271.037 60.8463 270.754 61.1293 270.566 61.5067L270 62.8275C270 62.9218 269.905 62.9218 269.905 62.9218C269.245 62.8275 268.585 62.7331 267.924 62.8275L267.83 62.7331L267.264 61.318C266.981 60.5633 266.037 60.1859 265.283 60.469L263.113 61.318C262.358 61.601 261.981 62.5444 262.264 63.2992L262.83 64.6199V64.7142C262.264 65.1859 261.792 65.6576 261.32 66.1293H261.226L259.811 65.5633C259.434 65.3746 259.056 65.3746 258.679 65.5633C258.302 65.752 258.019 66.035 257.83 66.4124L256.886 68.4878C256.509 69.2426 256.886 70.1859 257.641 70.469L258.962 71.035C259.056 71.035 259.056 71.1293 259.056 71.1293C258.962 71.7897 258.868 72.4501 258.962 73.1105L258.868 73.2048L257.452 73.7709C257.075 73.9595 256.792 74.2426 256.603 74.6199C256.415 74.9973 256.415 75.3746 256.603 75.752L257.452 77.9218C257.735 78.6765 258.679 79.0539 259.434 78.7709L260.754 78.2048H260.849C261.32 78.7709 261.792 79.2426 262.264 79.7143V79.8086L261.698 81.2237C261.509 81.601 261.509 81.9784 261.698 82.3558C261.886 82.7331 262.169 83.0161 262.547 83.2048L264.622 84.1482C265 84.3369 265.377 84.3369 265.754 84.1482C266.132 83.9595 266.415 83.6765 266.603 83.2992L267.169 81.9784C267.169 81.9312 267.169 81.9076 267.181 81.8959C267.193 81.8841 267.217 81.8841 267.264 81.8841C267.924 81.9784 268.585 82.0727 269.245 81.9784L269.339 82.0727L269.905 83.4878ZM270.66 81.601C270.377 81.035 269.811 80.6576 269.245 80.6576V80.469C268.679 80.469 268.113 80.469 267.547 80.3746C266.886 80.3746 266.226 80.6576 265.943 81.318L265.377 82.6388C265.377 82.7331 265.283 82.7331 265.283 82.7331L263.207 81.7897C263.113 81.7897 263.113 81.6954 263.113 81.6954L263.679 80.2803C263.962 79.7143 263.773 79.0539 263.302 78.5822L263.302 78.5822C262.924 78.2048 262.547 77.8274 262.169 77.3558C261.698 76.7897 261.037 76.601 260.377 76.8841L259.056 77.4501C259.056 77.4501 258.962 77.4501 258.962 77.3558L258.113 75.1859L258.207 75.0916L259.622 74.5256C260.188 74.2426 260.66 73.6765 260.566 73.0161C260.566 72.4501 260.566 71.8841 260.66 71.318C260.66 70.6576 260.377 69.9973 259.717 69.7142L258.396 69.1482C258.302 69.1482 258.302 69.0539 258.302 69.0539L259.245 66.9784C259.245 66.8841 259.339 66.8841 259.339 66.8841L260.754 67.4501C261.32 67.7331 261.981 67.5444 262.452 67.0727C262.83 66.6954 263.207 66.318 263.679 65.9407C264.245 65.469 264.434 64.8086 264.151 64.1482L263.49 62.9218C263.49 62.9218 263.49 62.8275 263.585 62.8275L265.754 61.9784C265.754 61.9784 265.849 61.9784 265.849 62.0727L266.415 63.4878C266.698 64.0539 267.264 64.4312 267.924 64.4312C268.49 64.4312 269.056 64.4312 269.622 64.5256C270.283 64.5256 270.943 64.2426 271.226 63.5822L271.792 62.2614C271.792 62.1671 271.886 62.1671 271.886 62.1671L273.962 63.1105C274.009 63.1105 274.033 63.1105 274.044 63.1223C274.056 63.1341 274.056 63.1576 274.056 63.2048L273.49 64.6199C273.207 65.1859 273.396 65.8463 273.868 66.318C274.339 66.6954 274.717 67.0727 275.094 67.5444C275.566 68.1105 276.226 68.2992 276.886 68.0161L278.207 67.5444C278.207 67.5444 278.302 67.5444 278.302 67.6388L279.151 69.8086L279.056 69.9029L277.641 70.469C277.075 70.752 276.603 71.318 276.698 71.9784C276.698 72.5444 276.698 73.1105 276.603 73.6765C276.603 74.3369 276.886 74.9973 277.547 75.2803L278.868 75.8463C278.962 75.8463 278.962 75.9407 278.962 75.9407L278.019 78.0161C278.019 78.1105 278.019 78.1105 277.924 78.1105L276.509 77.5444C275.943 77.2614 275.283 77.4501 274.811 77.9218C274.434 78.2992 274.056 78.6765 273.585 79.0539C273.019 79.5256 272.83 80.1859 273.113 80.8463L273.585 82.1671L273.49 82.2614L271.32 83.1105C271.32 83.1105 271.226 83.1105 271.226 83.0161L270.66 81.601ZM268.585 77.6388C266.509 77.6388 264.622 76.4124 263.773 74.4312C262.735 71.7897 264.056 68.7709 266.698 67.7331C269.339 66.6954 272.358 68.0161 273.396 70.6576C273.868 71.9784 273.868 73.2992 273.302 74.6199C272.735 75.8463 271.792 76.8841 270.471 77.3558C270.238 77.3891 270.017 77.4342 269.799 77.4786L269.799 77.4786C269.399 77.5599 269.012 77.6388 268.585 77.6388ZM267.169 68.9595C267.641 68.7709 268.113 68.6765 268.585 68.6765C270.094 68.6765 271.415 69.6199 271.981 71.035C272.736 72.9218 271.792 75.0916 269.905 75.8463C268.019 76.601 265.849 75.6576 265.094 73.7709C264.339 71.8841 265.283 69.7142 267.169 68.9595Z" fill="#3AA2FD"></path><path d="M72.83 86.1297C72.6413 86.1297 72.4526 86.0353 72.3583 85.941C70.3772 84.0542 69.1508 81.6014 68.5847 78.8655C67.6413 74.0542 69.3394 69.0542 73.0187 65.8467C73.3017 65.5636 73.7734 65.658 74.0564 65.941C74.3394 66.224 74.2451 66.6957 73.9621 66.9787C70.6602 69.9033 69.1508 74.3372 69.9998 78.6769C70.4715 81.1297 71.6036 83.2995 73.396 84.9976C73.6791 85.2806 73.6791 85.7523 73.396 86.0353C73.2074 86.0353 73.0187 86.1297 72.83 86.1297Z" fill="#3AA2FD"></path><path d="M75.0948 83.3941C74.9061 83.3941 74.7174 83.2997 74.6231 83.2054C73.3023 81.7903 72.4532 80.0922 72.0759 78.2054C71.4155 74.7148 72.5476 71.1299 75.1891 68.6771C75.4721 68.3941 75.9438 68.3941 76.2268 68.6771C76.5098 68.9601 76.5098 69.4318 76.2268 69.7148C73.9627 71.7903 72.9249 74.9035 73.5853 77.9224C73.8683 79.5262 74.6231 81.0356 75.7551 82.262C76.0381 82.545 76.0381 83.0167 75.7551 83.2997C75.3778 83.2997 75.1891 83.3941 75.0948 83.3941Z" fill="#3AA2FD"></path><path d="M77.7361 80.6596C77.5475 80.6596 77.3588 80.5652 77.1701 80.3766C76.4154 79.5275 75.9437 78.4898 75.6607 77.3577C75.2833 75.3766 75.8493 73.3954 77.1701 71.886C77.4531 71.603 77.8305 71.603 78.2078 71.7917C78.4909 72.0747 78.4909 72.452 78.3022 72.8294C77.2644 74.0558 76.7927 75.5652 77.1701 77.169C77.3588 78.0181 77.7361 78.8671 78.3022 79.5275C78.5852 79.8105 78.4909 80.2822 78.2078 80.5652C78.0192 80.5652 77.9248 80.6596 77.7361 80.6596Z" fill="#3AA2FD"></path><path d="M88.1129 85.941C87.9242 85.941 87.7355 85.8466 87.6412 85.7523C87.3582 85.4693 87.3582 84.9976 87.6412 84.7145C89.3393 82.9221 90.3771 80.6579 90.7544 78.2051C91.4148 73.7711 89.528 69.2428 85.9431 66.6013C85.6601 66.4127 85.5657 65.941 85.7544 65.6579C85.9431 65.3749 86.4148 65.2806 86.6978 65.4693C90.7544 68.4881 92.8299 73.4881 92.0752 78.4881C91.6978 81.224 90.4714 83.6768 88.6789 85.7523C88.4903 85.8466 88.3016 85.941 88.1129 85.941Z" fill="#3AA2FD"></path><path d="M85.7551 83.3941C85.5665 83.3941 85.4721 83.2998 85.2834 83.2055C85.0004 82.9224 84.9061 82.5451 85.1891 82.1677C86.2268 80.9413 86.9816 79.3375 87.1702 77.7338C87.6419 74.6205 86.3212 71.413 83.774 69.4319C83.491 69.1488 83.3967 68.7715 83.6797 68.3941C83.9627 68.1111 84.3401 68.0168 84.7174 68.2998C87.6419 70.5639 89.1514 74.2432 88.5853 77.9224C88.3023 79.8092 87.5476 81.6017 86.2268 83.0168C86.2268 83.2998 85.9438 83.3941 85.7551 83.3941Z" fill="#3AA2FD"></path><path d="M83.0191 80.7532C82.8305 80.7532 82.7361 80.6589 82.5474 80.5646C82.2644 80.2815 82.1701 79.9042 82.4531 79.5268C83.0191 78.8665 83.3965 78.0174 83.4908 77.1683C83.7739 75.5646 83.1135 73.8665 81.8871 72.7344C81.604 72.4514 81.604 71.9797 81.8871 71.6966C82.1701 71.4136 82.6418 71.4136 82.9248 71.6966C84.5286 73.1117 85.2833 75.2815 85.0003 77.357C84.8116 78.4891 84.3399 79.5268 83.6795 80.3759C83.3965 80.6589 83.2078 80.7532 83.0191 80.7532Z" fill="#3AA2FD"></path><path fill-rule="evenodd" clip-rule="evenodd" d="M43.3018 50.3755H63.5849C64.6226 50.3755 65.4716 49.5265 65.4716 48.4887V34.0548C65.4716 33.017 64.6226 32.168 63.5849 32.168H43.3018C42.2641 32.168 41.415 33.017 41.415 34.0548V48.4887C41.415 49.5265 42.2641 50.3755 43.3018 50.3755ZM42.8301 34.0548C42.8301 33.7717 43.0188 33.5831 43.3018 33.5831H63.5849C63.8679 33.5831 64.0565 33.7717 64.0565 34.0548V48.4887C64.0565 48.7717 63.8679 48.9604 63.5849 48.9604H43.3018C43.0188 48.9604 42.8301 48.7717 42.8301 48.4887V34.0548Z" fill="#3AA2FD"></path><path d="M45.7549 37.0742L53.3964 42.5459L45.7549 37.0742Z" fill="white"></path><path d="M53.3969 43.3002C53.2082 43.3002 53.1139 43.3002 53.0196 43.2058L45.4724 37.7341C45.1894 37.5455 45.095 37.0738 45.2837 36.7907C45.4724 36.5077 45.9441 36.4134 46.2271 36.6021L53.7743 42.0738C54.0573 42.2624 54.1516 42.7341 53.963 43.0172C53.7743 43.2058 53.5856 43.3002 53.3969 43.3002Z" fill="#3AA2FD"></path><path d="M53.3965 42.5459L61.038 37.0742L53.3965 42.5459Z" fill="white"></path><path d="M53.396 43.2986C53.2073 43.2986 52.9243 43.2043 52.83 43.0156C52.6413 42.7326 52.6413 42.2609 53.0187 42.0722L60.5658 36.6005C60.8489 36.4118 61.3206 36.4118 61.5092 36.7892C61.6979 37.0722 61.6979 37.5439 61.3206 37.7326L53.7734 43.2043C53.679 43.2986 53.5847 43.2986 53.396 43.2986Z" fill="#3AA2FD"></path><path d="M341.226 201.793C341.037 201.793 340.849 201.699 340.754 201.605L333.396 194.246C333.113 193.963 333.113 193.491 333.396 193.208C333.679 192.925 334.151 192.925 334.434 193.208L341.792 200.567C342.075 200.85 342.075 201.322 341.792 201.605C341.603 201.699 341.415 201.793 341.226 201.793Z" fill="#3AA2FD"></path><path d="M333.868 209.153C333.679 209.153 333.49 209.058 333.396 208.964C333.113 208.681 333.113 208.209 333.396 207.926L340.754 200.568C341.037 200.285 341.509 200.285 341.792 200.568C342.075 200.851 342.075 201.322 341.792 201.605L334.434 208.964C334.245 209.058 334.056 209.153 333.868 209.153Z" fill="#3AA2FD"></path><path d="M320.566 209.153C320.377 209.153 320.189 209.058 320.094 208.964L312.736 201.605C312.453 201.322 312.453 200.851 312.736 200.568C313.019 200.285 313.49 200.285 313.773 200.568L321.132 207.926C321.415 208.209 321.415 208.681 321.132 208.964C320.943 209.058 320.755 209.153 320.566 209.153Z" fill="#3AA2FD"></path><path d="M313.207 201.793C313.019 201.793 312.83 201.699 312.736 201.605C312.453 201.322 312.453 200.85 312.736 200.567L320.094 193.208C320.377 192.925 320.849 192.925 321.132 193.208C321.415 193.491 321.415 193.963 321.132 194.246L313.773 201.605C313.585 201.699 313.396 201.793 313.207 201.793Z" fill="#3AA2FD"></path><path d="M10.66 209.906C10.2826 209.906 9.90527 209.623 9.90527 209.151V200.095C9.90527 199.717 10.1883 199.34 10.66 199.34C11.1317 199.34 11.4147 199.623 11.4147 200.095V209.151C11.3204 209.623 11.0373 209.906 10.66 209.906Z" fill="#3AA2FD"></path><path d="M15.7547 209.902C15.3774 209.902 15 209.619 15 209.148V193.77C15 193.393 15.283 193.016 15.7547 193.016C16.2264 193.016 16.5094 193.299 16.5094 193.77V209.148C16.4151 209.619 16.1321 209.902 15.7547 209.902Z" fill="#3AA2FD"></path><path d="M20.8494 209.905C20.4721 209.905 20.0947 209.622 20.0947 209.15V188.962C20.0947 188.584 20.3777 188.207 20.8494 188.207C21.3211 188.207 21.6042 188.49 21.6042 188.962V209.15C21.5098 209.622 21.2268 209.905 20.8494 209.905Z" fill="#3AA2FD"></path><path d="M25.9432 209.904C25.5658 209.904 25.1885 209.621 25.1885 209.15V201.602C25.1885 201.225 25.4715 200.848 25.9432 200.848C26.4149 200.848 26.6979 201.131 26.6979 201.602V209.15C26.6036 209.621 26.3206 209.904 25.9432 209.904Z" fill="#3AA2FD"></path><path d="M31.0379 209.906C30.6606 209.906 30.2832 209.623 30.2832 209.151V192.641C30.2832 192.264 30.5662 191.887 31.0379 191.887C31.5096 191.887 31.7926 192.17 31.7926 192.641V209.151C31.6983 209.623 31.4153 209.906 31.0379 209.906Z" fill="#3AA2FD"></path><path d="M36.1317 209.905C35.7543 209.905 35.377 209.622 35.377 209.15V200.848C35.377 200.471 35.66 200.094 36.1317 200.094C36.6034 200.094 36.8864 200.377 36.8864 200.848V209.15C36.792 209.622 36.509 209.905 36.1317 209.905Z" fill="#3AA2FD"></path></svg> 