<svg width="29" height="29" viewBox="0 0 29 29" fill="none" xmlns="http://www.w3.org/2000/svg">
<circle cx="14.5" cy="14.8345" r="13.5" fill="#215FFF" stroke="white"/>
<path d="M14.9438 15.5847V20.6383H13.7087V15.5847V15.0847H13.2087H11.8398V13.9204H13.2087H13.7087V13.4204V11.8243C13.7087 11.0015 13.9576 10.4253 14.3324 10.0548C14.7088 9.68287 15.2677 9.46338 15.9924 9.46338C16.4474 9.46338 16.8625 9.48344 17.1624 9.50464V10.4846L16.5164 10.4849C16.5163 10.4849 16.5163 10.4849 16.5162 10.4849C16.0003 10.485 15.5534 10.6069 15.2606 10.9547C14.984 11.2833 14.9438 11.7039 14.9438 12.0386V13.4204V13.9204H15.4438H17.0184L16.8682 15.0847H15.4438H14.9438V15.5847Z" fill="white" stroke="white"/>
</svg>
