<svg width="14" height="13" viewBox="0 0 14 13" fill="none" xmlns="http://www.w3.org/2000/svg">
<path fill-rule="evenodd" clip-rule="evenodd" d="M7.10685 0.0610352C3.51591 0.0610352 0.626953 2.94999 0.626953 6.54093C0.626953 9.40289 2.48992 11.8328 5.05488 12.6968C5.37888 12.7508 5.48688 12.5618 5.48688 12.3728C5.48688 12.2108 5.48688 11.8058 5.48688 11.2659C3.6779 11.6708 3.29991 10.4019 3.29991 10.4019C3.00291 9.64588 2.57092 9.45689 2.57092 9.45689C1.97693 9.05189 2.62492 9.05189 2.62492 9.05189C3.27291 9.10589 3.6239 9.72688 3.6239 9.72688C4.1909 10.7259 5.13588 10.4289 5.51387 10.2669C5.56787 9.83488 5.72987 9.56488 5.91887 9.40289C4.48789 9.24089 2.97592 8.6739 2.97592 6.18994C2.97592 5.48795 3.21891 4.89396 3.6509 4.46196C3.59691 4.29997 3.35391 3.65198 3.7049 2.73399C3.7049 2.73399 4.24489 2.57199 5.48688 3.40898C5.99987 3.27398 6.56686 3.19298 7.10685 3.19298C7.64684 3.19298 8.21383 3.27398 8.72682 3.40898C9.9688 2.57199 10.5088 2.73399 10.5088 2.73399C10.8598 3.62498 10.6438 4.27297 10.5628 4.46196C10.9678 4.92096 11.2378 5.48795 11.2378 6.18994C11.2378 8.6739 9.72581 9.21389 8.26783 9.37589C8.51083 9.56488 8.69982 9.96988 8.69982 10.5639C8.69982 11.4279 8.69982 12.1298 8.69982 12.3458C8.69982 12.5078 8.80782 12.7238 9.15882 12.6698C11.7238 11.8328 13.5867 9.40289 13.5867 6.54093C13.5867 2.94999 10.6978 0.0610352 7.10685 0.0610352Z" fill="white"/>
</svg>
