<svg width="15" height="14" viewBox="0 0 15 14" fill="none" xmlns="http://www.w3.org/2000/svg">
<path d="M11.6762 1.08775L11.6762 1.08771L11.6697 1.08533C11.2159 0.917403 10.7367 0.828083 10.2529 0.821186C9.53315 0.788394 9.30482 0.78168 7.50076 0.78168C5.6964 0.78168 5.46833 0.788721 4.74875 0.821185C4.26486 0.828069 3.78567 0.91739 3.33177 1.08533L3.33176 1.08528L3.32536 1.08775C2.96802 1.22556 2.6435 1.43667 2.37269 1.70748L2.72624 2.06103L2.37269 1.70748C2.10187 1.9783 1.89077 2.30282 1.75296 2.66015L1.75291 2.66014L1.75053 2.66657C1.58261 3.12043 1.49329 3.59958 1.48639 4.08343C1.4536 4.80316 1.44689 5.03149 1.44689 6.83555C1.44689 8.63991 1.45393 8.86798 1.48639 9.58756C1.49327 10.0714 1.58259 10.5506 1.75053 11.0045L1.75049 11.0045L1.75296 11.0109C1.89077 11.3683 2.10187 11.6928 2.37269 11.9636L2.72624 11.6101L2.37269 11.9636C2.6435 12.2344 2.96802 12.4455 3.32536 12.5834L3.32534 12.5834L3.33177 12.5858C3.78564 12.7537 4.2648 12.843 4.74864 12.8499C5.46804 12.8827 5.6964 12.8894 7.50076 12.8894C9.30541 12.8894 9.5335 12.8824 10.2528 12.8499C10.7366 12.843 11.2158 12.7537 11.6697 12.5858L11.6698 12.5858L11.6762 12.5834C12.0335 12.4455 12.358 12.2344 12.6288 11.9636C12.8996 11.6928 13.1107 11.3683 13.2486 11.0109L13.2486 11.011L13.251 11.0045C13.4189 10.5507 13.5082 10.0715 13.5151 9.58768C13.5479 8.86794 13.5546 8.63961 13.5546 6.83555C13.5546 5.03119 13.5476 4.80312 13.5151 4.08353C13.5082 3.59965 13.4189 3.12047 13.251 2.66657L13.251 2.66655L13.2486 2.66015C13.1107 2.30282 12.8996 1.9783 12.6288 1.70748C12.358 1.43667 12.0335 1.22556 11.6762 1.08775ZM4.7178 0.601581L4.7178 0.601745L4.7306 0.601163C5.44177 0.568779 5.66446 0.561035 7.50076 0.561035C9.33702 0.561035 9.55991 0.568777 10.2707 0.600537L10.2707 0.60069L10.2831 0.600936C10.7886 0.610991 11.2887 0.706673 11.7623 0.883915C12.1461 1.02842 12.4937 1.25494 12.781 1.54767L12.7809 1.54773L12.7877 1.55438C13.0804 1.84159 13.3069 2.18922 13.4514 2.573C13.6287 3.04655 13.7243 3.54673 13.7344 4.05227L13.7342 4.05227L13.7348 4.06507C13.7672 4.77624 13.775 4.99893 13.775 6.83523C13.775 8.67149 13.7672 8.89438 13.7354 9.60517L13.7353 9.60516L13.735 9.61754C13.725 10.1223 13.6296 10.6218 13.4529 11.0947C13.3039 11.4788 13.0765 11.8277 12.7852 12.1192C12.494 12.4105 12.1453 12.6381 11.7614 12.7874C11.2885 12.9641 10.7891 13.0595 10.2844 13.0695L10.2844 13.0694L10.2716 13.0699C9.56039 13.1023 9.33866 13.1101 7.5014 13.1101C5.66454 13.1101 5.44245 13.1017 4.7308 13.0699L4.7308 13.0698L4.71844 13.0695C4.21276 13.0595 3.71245 12.9637 3.23879 12.7864C2.85516 12.6419 2.50767 12.4154 2.22055 12.1228L2.22062 12.1227L2.21384 12.1161C1.92115 11.8289 1.69465 11.4813 1.55015 11.0976C1.37287 10.624 1.27716 10.1238 1.26711 9.61819L1.26727 9.61818L1.26669 9.60539C1.23431 8.89422 1.22656 8.67153 1.22656 6.83523C1.22656 4.99896 1.2343 4.77607 1.26606 4.06529L1.26622 4.0653L1.26646 4.05291C1.27652 3.54736 1.37221 3.04718 1.54947 2.57362C1.69414 2.18986 1.92082 1.84229 2.21369 1.55518L2.21375 1.55525L2.22061 1.54825C2.50762 1.25565 2.85499 1.02917 3.2385 0.88459C3.71206 0.70733 4.21225 0.611637 4.7178 0.601581Z" fill="#090914" stroke="white"/>
<path d="M5.84727 4.35991C6.33711 4.03261 6.91302 3.85791 7.50215 3.85791C8.29215 3.85791 9.0498 4.17174 9.60841 4.73035C10.167 5.28897 10.4809 6.04662 10.4809 6.83662C10.4809 7.42575 10.3062 8.00166 9.97885 8.4915C9.65155 8.98135 9.18634 9.36314 8.64205 9.58859C8.09776 9.81404 7.49884 9.87303 6.92103 9.75809C6.34322 9.64316 5.81246 9.35946 5.39588 8.94288C4.9793 8.5263 4.69561 7.99555 4.58067 7.41774C4.46574 6.83992 4.52473 6.241 4.75018 5.69672C4.97563 5.15243 5.35742 4.68722 5.84727 4.35991ZM5.96985 9.12987C6.42341 9.43293 6.95666 9.59468 7.50215 9.59468C8.23363 9.59468 8.93516 9.3041 9.45239 8.78687C9.96963 8.26963 10.2602 7.5681 10.2602 6.83662C10.2602 6.29113 10.0985 5.75788 9.7954 5.30432C9.49234 4.85076 9.06158 4.49725 8.55761 4.2885C8.05364 4.07975 7.49909 4.02513 6.96408 4.13155C6.42906 4.23797 5.93762 4.50065 5.5519 4.88637C5.16618 5.2721 4.9035 5.76354 4.79708 6.29855C4.69066 6.83356 4.74528 7.38811 4.95403 7.89208C5.16278 8.39606 5.51629 8.82681 5.96985 9.12987Z" fill="#090914" stroke="white"/>
<path d="M11.4305 3.21964C11.4305 3.39245 11.2904 3.53254 11.1176 3.53254C10.9448 3.53254 10.8047 3.39245 10.8047 3.21964C10.8047 3.04683 10.9448 2.90674 11.1176 2.90674C11.2904 2.90674 11.4305 3.04683 11.4305 3.21964Z" fill="#090914" stroke="white"/>
</svg>
