<svg width="29" height="29" viewBox="0 0 29 29" fill="none" xmlns="http://www.w3.org/2000/svg">
<circle cx="14.5" cy="14.8345" r="14" fill="#8A8A8E"/>
<path d="M20.7071 11.8176C20.2881 12.0038 19.8458 12.1202 19.3802 12.19C19.8458 11.9107 20.2183 11.4684 20.3812 10.933C19.9389 11.189 19.4501 11.3753 18.9146 11.4917C18.4956 11.0494 17.8904 10.77 17.2386 10.77C15.9815 10.77 14.9572 11.7943 14.9572 13.0514C14.9572 13.2376 14.9805 13.4005 15.0271 13.5635C13.1415 13.4704 11.4421 12.5625 10.3014 11.1658C10.1152 11.5149 9.99878 11.8874 9.99878 12.3064C9.99878 13.0979 10.3945 13.7963 11.0231 14.2153C10.6506 14.192 10.3014 14.0989 9.9755 13.936V13.9592C9.9755 15.0766 10.767 16.0078 11.8145 16.2173C11.6283 16.2639 11.4188 16.2871 11.2093 16.2871C11.0696 16.2871 10.9067 16.2639 10.767 16.2406C11.0696 17.1485 11.9077 17.8236 12.9087 17.8236C12.1172 18.4288 11.1395 18.8013 10.0686 18.8013C9.88239 18.8013 9.69616 18.8013 9.5332 18.778C10.5575 19.4298 11.7447 19.8023 13.0483 19.8023C17.2618 19.8023 19.5665 16.3104 19.5665 13.2842C19.5665 13.191 19.5665 13.0746 19.5665 12.9815C20.0088 12.6789 20.4045 12.2832 20.7071 11.8176Z" fill="white"/>
</svg>
